<?xml version="1.0" standalone="no"?>
<!DOCTYPE svg PUBLIC "-//W3C//DTD SVG 20010904//EN"
 "http://www.w3.org/TR/2001/REC-SVG-20010904/DTD/svg10.dtd">
<svg version="1.0" xmlns="http://www.w3.org/2000/svg"
 width="512.000000pt" height="512.000000pt" viewBox="0 0 512.000000 512.000000"
 preserveAspectRatio="xMidYMid meet">

<g transform="translate(0.000000,512.000000) scale(0.100000,-0.100000)"
fill="#000000" stroke="none">
<path d="M1397 4949 c-10 -6 -58 -91 -107 -190 l-90 -179 0 -210 0 -210 -255
0 -256 0 -24 -25 -25 -24 0 -1951 0 -1951 25 -24 24 -25 1871 0 1871 0 24 25
25 24 0 1951 0 1951 -25 24 c-24 25 -24 25 -240 25 l-215 0 0 210 0 210 -90
180 c-50 99 -98 184 -109 190 -27 14 -2379 14 -2404 -1z m1633 -229 l40 -80
-830 0 -830 0 40 80 40 80 750 0 750 0 40 -80z m720 0 l40 -80 -270 0 -270 0
-40 80 -40 80 270 0 270 0 40 -80z m-2230 -600 l0 -360 -80 0 -80 0 0 360 0
360 80 0 80 0 0 -360z m1280 200 l0 -160 -560 0 -560 0 0 160 0 160 560 0 560
0 0 -160z m320 -200 l0 -360 -80 0 -80 0 0 360 0 360 80 0 80 0 0 -360z m400
200 l0 -160 -120 0 -120 0 0 160 0 160 120 0 120 0 0 -160z m320 0 l0 -160
-80 0 -80 0 0 160 0 160 80 0 80 0 0 -160z m-2640 -440 l0 -120 -95 0 c-88 0
-98 -2 -120 -25 -25 -24 -25 -26 -25 -215 0 -189 0 -191 25 -215 l24 -25 431
0 431 0 24 25 c25 24 25 26 25 215 0 189 0 191 -25 215 -22 23 -32 25 -120 25
l-95 0 0 120 0 120 560 0 560 0 0 -120 0 -120 -95 0 c-88 0 -98 -2 -120 -25
-25 -24 -25 -26 -25 -215 0 -189 0 -191 25 -215 l24 -25 431 0 431 0 24 25
c25 24 25 26 25 215 0 189 0 191 -25 215 -22 23 -32 25 -120 25 l-95 0 0 120
0 120 200 0 200 0 0 -1840 0 -1840 -1440 0 -1440 0 0 1840 0 1840 200 0 200 0
0 -120z m3018 102 c-34 -48 -134 -171 -138 -171 -4 0 -104 123 -138 171 -13
17 -6 18 138 18 144 0 151 -1 138 -18z m-218 -851 l0 -522 25 -24 c15 -16 36
-25 55 -25 19 0 40 9 55 25 l25 24 0 522 0 521 80 100 80 101 0 -1693 0 -1693
-80 101 -80 100 0 601 0 602 -25 24 c-32 33 -78 33 -110 0 l-25 -24 0 -602 0
-601 -80 -100 -80 -101 0 1693 0 1693 80 -101 80 -100 0 -521z m-2240 389 l0
-80 -320 0 -320 0 0 80 0 80 320 0 320 0 0 -80z m1600 0 l0 -80 -320 0 -320 0
0 80 0 80 320 0 320 0 0 -80z m797 -3103 l73 -92 -75 -3 c-41 -2 -109 -2 -150
0 l-75 3 73 92 c39 51 74 92 77 92 3 0 38 -41 77 -92z"/>
<path d="M2172 3037 c-28 -30 -93 -180 -131 -304 -77 -247 -106 -519 -82 -753
4 -41 6 -77 5 -79 -2 -2 -23 14 -46 35 -102 93 -256 198 -393 267 -176 87
-461 176 -509 157 -30 -11 -56 -47 -56 -77 0 -13 62 -105 152 -225 165 -221
300 -366 435 -465 90 -67 89 -72 -7 -73 -25 -1 -139 -11 -254 -24 -202 -23
-211 -25 -233 -50 -13 -15 -23 -38 -23 -51 0 -52 33 -69 290 -153 135 -44 269
-85 298 -91 128 -26 355 -7 474 40 27 10 51 19 53 19 3 0 5 -65 5 -144 0 -144
0 -145 26 -165 35 -28 67 -26 101 3 28 24 28 25 31 164 l3 139 92 -30 c77 -25
114 -30 221 -35 82 -3 154 0 200 8 103 18 546 167 573 192 48 45 20 121 -49
133 -64 11 -402 45 -447 45 -79 0 -80 12 -4 66 122 86 289 263 447 475 148
198 161 223 136 269 -21 39 -63 42 -186 10 -262 -68 -520 -201 -731 -379 l-72
-61 6 172 c9 252 -19 458 -92 684 -40 123 -108 274 -132 292 -27 20 -77 15
-101 -11z m96 -382 c53 -180 66 -279 66 -505 0 -181 -3 -222 -27 -351 -34
-184 -34 -202 -1 -228 47 -37 72 -28 144 52 154 172 302 296 466 391 87 51
261 129 275 124 5 -2 -19 -39 -53 -83 -171 -224 -357 -379 -599 -501 -140 -70
-166 -107 -118 -168 l22 -27 191 6 c105 3 223 2 261 -3 l70 -8 -75 -25 c-66
-21 -93 -24 -225 -24 l-150 0 -125 44 c-151 52 -186 52 -347 -5 -107 -39 -109
-39 -258 -39 -132 0 -159 3 -225 25 l-75 24 70 8 c39 5 156 6 261 3 l192 -6
21 27 c47 60 22 98 -108 164 -228 114 -443 291 -597 492 -73 95 -76 101 -48
94 55 -14 259 -117 354 -180 126 -84 253 -197 347 -307 81 -96 109 -112 152
-88 49 28 52 51 26 189 -57 303 -59 508 -6 765 26 126 72 270 82 253 4 -7 21
-58 37 -113z"/>
<path d="M2585 615 c-16 -15 -25 -36 -25 -55 0 -19 9 -40 25 -55 23 -24 31
-25 135 -25 104 0 112 1 135 25 16 15 25 36 25 55 0 19 -9 40 -25 55 -23 24
-31 25 -135 25 -104 0 -112 -1 -135 -25z"/>
<path d="M3065 615 c-16 -15 -25 -36 -25 -55 0 -19 9 -40 25 -55 24 -25 26
-25 215 -25 189 0 191 0 215 25 16 15 25 36 25 55 0 19 -9 40 -25 55 -24 25
-26 25 -215 25 -189 0 -191 0 -215 -25z"/>
<path d="M4025 2375 c-24 -23 -25 -31 -25 -135 0 -104 1 -112 25 -135 15 -16
36 -25 55 -25 19 0 40 9 55 25 24 23 25 31 25 135 0 104 -1 112 -25 135 -15
16 -36 25 -55 25 -19 0 -40 -9 -55 -25z"/>
</g>
</svg>
