<?xml version="1.0" standalone="no"?>
<!DOCTYPE svg PUBLIC "-//W3C//DTD SVG 20010904//EN"
 "http://www.w3.org/TR/2001/REC-SVG-20010904/DTD/svg10.dtd">
<svg version="1.0" xmlns="http://www.w3.org/2000/svg"
 width="512.000000pt" height="512.000000pt" viewBox="0 0 512.000000 512.000000"
 preserveAspectRatio="xMidYMid meet">

<g transform="translate(0.000000,512.000000) scale(0.100000,-0.100000)"
fill="#000000" stroke="none">
<path d="M2512 5100 c-60 -56 -272 -463 -365 -700 -53 -137 -127 -363 -157
-478 -27 -106 -60 -269 -60 -294 0 -27 44 -68 73 -68 52 0 65 26 101 187 48
212 105 398 187 603 83 208 247 535 269 535 20 0 201 -360 267 -530 281 -724
333 -1336 172 -1992 -66 -273 -171 -547 -298 -783 l-56 -105 -3 379 -2 380
110 111 c67 68 110 120 110 132 0 37 -38 73 -76 73 -29 0 -46 -10 -90 -51
l-54 -52 0 109 0 109 101 100 c55 55 105 111 110 124 18 46 -24 101 -77 101
-9 0 -42 -25 -75 -57 l-59 -56 0 109 0 109 96 95 c130 129 145 160 99 205 -40
41 -77 34 -140 -26 l-54 -51 -3 216 c-3 206 -4 216 -25 237 -27 27 -75 29
-103 4 -19 -17 -20 -30 -20 -237 0 -120 -3 -218 -7 -218 -3 0 -30 22 -59 50
-62 59 -99 65 -139 25 -46 -45 -31 -75 104 -210 l101 -100 0 -102 c0 -57 -3
-103 -7 -103 -3 0 -32 25 -64 55 -32 30 -64 55 -73 55 -53 0 -95 -55 -77 -101
5 -13 57 -71 115 -129 l106 -105 0 -102 c0 -57 -3 -103 -7 -103 -3 0 -30 22
-59 50 -43 40 -60 50 -88 50 -38 0 -76 -36 -76 -73 0 -11 46 -67 115 -137
l115 -118 0 -376 c0 -230 -4 -375 -9 -371 -16 9 -115 201 -174 335 -114 261
-205 575 -248 855 -16 108 -22 200 -25 399 -4 287 -6 296 -69 296 -43 0 -64
-18 -75 -65 -11 -46 -12 -344 -2 -457 l7 -76 -121 117 c-310 302 -675 534
-1119 711 -152 60 -347 124 -480 156 -97 23 -106 24 -135 9 -53 -28 -51 -67
22 -315 56 -192 137 -398 233 -595 83 -169 200 -373 234 -408 25 -25 77 -25
103 1 34 34 25 69 -53 197 -94 156 -224 425 -288 595 -53 143 -116 348 -109
355 8 8 246 -68 396 -127 486 -190 906 -469 1200 -799 150 -166 159 -182 192
-316 50 -205 114 -395 194 -583 l37 -85 -190 189 -189 189 -4 125 c-3 116 -4
125 -27 143 -57 46 -121 10 -121 -68 l0 -48 -85 85 -85 85 0 115 c0 138 -10
160 -69 160 -47 0 -71 -24 -78 -80 l-6 -41 -147 145 c-127 126 -151 146 -178
146 -49 0 -79 -37 -72 -90 1 -8 66 -80 146 -160 79 -80 144 -148 144 -152 0
-4 -21 -8 -46 -10 -59 -4 -90 -38 -79 -87 11 -49 45 -61 177 -61 l113 0 80
-80 80 -80 -45 0 c-50 -1 -75 -15 -89 -51 -11 -30 8 -83 34 -93 9 -3 69 -6
133 -6 l117 0 305 -306 c342 -343 334 -325 120 -252 -317 109 -609 263 -856
450 -98 74 -324 274 -324 286 0 4 -31 40 -69 80 -60 62 -73 72 -103 72 -59 0
-88 -51 -61 -108 24 -50 286 -310 416 -412 l108 -85 -113 -12 c-325 -36 -690
-155 -982 -320 -196 -111 -205 -150 -51 -243 440 -266 998 -400 1451 -349 53
6 98 9 100 7 2 -2 -13 -26 -32 -54 -102 -142 -201 -355 -249 -536 -24 -90 -25
-100 -11 -126 26 -50 48 -52 172 -16 403 116 708 338 907 659 l37 59 0 -324
c0 -179 4 -340 10 -359 23 -82 117 -82 140 0 6 19 10 180 10 359 l0 324 37
-59 c184 -298 449 -504 812 -629 191 -66 239 -69 266 -16 14 27 14 36 -5 110
-45 176 -128 363 -229 516 -32 49 -58 90 -56 92 2 2 46 -1 99 -7 450 -51 983
76 1441 342 86 50 115 78 115 112 0 38 -40 73 -160 140 -295 165 -655 282
-978 318 l-113 12 109 86 c208 167 376 343 541 569 250 342 472 824 577 1247
31 126 28 155 -16 178 -29 15 -38 14 -134 -9 -209 -50 -618 -198 -657 -237
-23 -23 -25 -67 -4 -96 25 -36 59 -36 135 -3 154 67 506 187 518 176 11 -12
-85 -301 -159 -480 -339 -808 -877 -1351 -1640 -1655 -125 -49 -309 -111 -332
-111 -6 0 125 137 293 305 l305 305 117 0 c64 0 124 3 133 6 26 10 45 63 34
93 -14 36 -39 50 -89 51 l-45 0 80 80 80 80 113 0 c132 0 166 12 177 61 11 49
-20 83 -79 87 -25 2 -46 6 -46 10 0 4 65 72 144 152 80 80 145 152 146 160 7
53 -23 90 -72 90 -27 0 -51 -20 -178 -146 l-147 -145 -6 41 c-7 56 -31 80 -78
80 -59 0 -69 -22 -69 -160 l0 -115 -85 -85 -85 -85 0 48 c0 78 -64 114 -121
68 -23 -18 -24 -27 -27 -143 l-4 -125 -189 -189 -190 -189 37 85 c78 183 146
385 194 584 32 131 35 134 168 288 185 215 441 423 726 590 55 33 72 67 54
106 -7 15 -26 33 -41 40 -25 12 -33 11 -80 -13 -82 -42 -298 -188 -409 -277
-56 -44 -156 -134 -222 -199 l-121 -117 7 76 c10 118 9 357 -3 499 -39 468
-195 989 -433 1448 -83 159 -169 303 -194 322 -25 19 -65 16 -90 -7z m-905
-3642 c64 -34 177 -88 252 -120 l136 -58 -217 0 c-205 0 -219 -1 -238 -20 -30
-30 -27 -83 6 -109 26 -20 38 -21 383 -22 l356 -1 -90 -43 c-181 -88 -438
-160 -650 -185 -370 -42 -787 42 -1191 239 l-138 67 90 46 c204 105 454 192
667 233 167 31 171 31 360 33 l157 2 117 -62z m2540 28 c219 -44 457 -127 667
-233 l91 -46 -138 -68 c-404 -197 -821 -281 -1192 -239 -212 25 -469 97 -650
185 l-90 43 356 1 c345 1 357 2 383 22 33 26 36 79 6 109 -19 19 -33 20 -237
20 l-218 0 145 63 c80 34 192 88 250 120 l105 57 195 -4 c160 -3 219 -8 327
-30z m-1726 -504 c-36 -90 -108 -225 -159 -297 -152 -215 -375 -378 -666 -484
l-58 -22 7 28 c12 50 65 177 107 253 62 116 122 202 199 284 65 70 75 76 152
102 109 36 297 116 372 158 33 18 61 32 63 31 1 -1 -6 -25 -17 -53z m509 -65
c58 -24 142 -56 187 -71 77 -26 87 -32 152 -102 77 -82 137 -168 199 -284 41
-76 95 -203 107 -252 l7 -28 -68 26 c-287 107 -520 279 -662 486 -48 71 -151
270 -167 325 -6 21 -1 20 67 -17 41 -22 121 -59 178 -83z"/>
</g>
</svg>
